<svg width="60" height="60" fill="none" xmlns="http://www.w3.org/2000/svg"><path fill-rule="evenodd" clip-rule="evenodd" d="M30 33.9791C34.416 33.9791 38 30.3974 38 25.9843C38 21.5711 34.416 17.9895 30 17.9895C25.584 17.9895 22 21.5711 22 25.9843C22 30.3974 25.584 33.9791 30 33.9791Z" fill="#FD3301"/><path fill-rule="evenodd" clip-rule="evenodd" d="M54 25.9843C54 45.9712 34 57.9635 30 57.9635C26 57.9635 6 45.9712 6 25.9843C6 12.7409 16.748 2 30 2C43.252 2 54 12.7409 54 25.9843Z" fill="#FD3301"/><path fill-rule="evenodd" clip-rule="evenodd" d="M30 33.9791C34.416 33.9791 38 30.3974 38 25.9843C38 21.5711 34.416 17.9895 30 17.9895C25.584 17.9895 22 21.5711 22 25.9843C22 30.3974 25.584 33.9791 30 33.9791Z" stroke="#FD3301" stroke-linecap="square"/><path fill-rule="evenodd" clip-rule="evenodd" d="M54 25.9843C54 45.9712 34 57.9635 30 57.9635C26 57.9635 6 45.9712 6 25.9843C6 12.7409 16.748 2 30 2C43.252 2 54 12.7409 54 25.9843Z" stroke="#FD3301" stroke-linecap="square"/></svg>